# xmcd
#
# Track frame offsets:
#	150
#	12900
#	36372
#	63252
#	88270
#	109016
#	129525
#	157147
#
# Disc length: 2654 seconds
#
# Revision: 0
# Processed by: cddbd v1.5.1PL0 Copyright (c) Steve Scherf et al.
# Submitted via: dBpowerAMP V4.0
#
DISCID=680a5c08
DTITLE=One Believer - Right in the Middle
DYEAR=2005
DGENRE=Blues
TTITLE0=Magnolia State
TTITLE1=Good Bear
TTITLE2=Wheel is Turning
TTITLE3=Right in the Middle
TTITLE4=Long Life to the Blues
TTITLE5=Sweet Love
TTITLE6=Heaven
TTITLE7=Cold Windy Day - Golden Harvest
EXTD=www.onebeliever.new.fr
EXTT0=
EXTT1=
EXTT2=
EXTT3=
EXTT4=
EXTT5=
EXTT6=
EXTT7=
PLAYORDER=
